<svg width="600" height="600" viewBox="0 0 600 600" fill="none" xmlns="http://www.w3.org/2000/svg">
<path d="M300 0L382.66 100.442L512.132 87.868L499.558 217.34L600 300L499.558 382.66L512.132 512.132L382.66 499.558L300 600L217.34 499.558L87.868 512.132L100.442 382.66L0 300L100.442 217.34L87.868 87.868L217.34 100.442L300 0Z" fill="#475569"/>
<path d="M300 31.9149L373.866 121.672L489.565 110.435L478.328 226.134L568.085 300L478.328 373.866L489.565 489.565L373.866 478.328L300 568.085L226.134 478.328L110.435 489.565L121.672 373.866L31.9149 300L121.672 226.134L110.435 110.435L226.134 121.672L300 31.9149Z" fill="#020617"/>
<path d="M300 108.511L352.761 172.623L435.403 164.597L427.377 247.239L491.489 300L427.377 352.761L435.403 435.403L352.761 427.377L300 491.489L247.238 427.377L164.597 435.403L172.623 352.761L108.511 300L172.623 247.239L164.597 164.597L247.238 172.623L300 108.511Z" fill="#1E293B"/>
<path d="M300 140.425L343.968 193.852L412.836 187.164L406.148 256.032L459.574 300L406.148 343.968L412.836 412.836L343.968 406.148L300 459.574L256.032 406.148L187.164 412.836L193.852 343.968L140.425 300L193.852 256.032L187.164 187.164L256.032 193.852L300 140.425Z" fill="#CBD5E1"/>
<path d="M300 204.255L348.745 251.255L395.745 300L348.745 348.745L300 395.745L251.255 348.745L204.255 300L251.255 251.255L300 204.255Z" fill="#F8FAFC"/>
<path d="M300 236.17L332.497 267.503L363.83 300L332.497 332.497L300 363.83L267.503 332.497L236.17 300L267.503 267.503L300 236.17Z" fill="#020617"/>
</svg>
